<svg xmlns="http://www.w3.org/2000/svg" viewBox="0 0 433 744" width="433" height="744" preserveAspectRatio="xMidYMid meet" overflow="visible"><defs><linearGradient id="s0-grad-d7d2588b-c712-44be-9215-a2fe46472fb1" x1="50%" y1="0%" x2="50%" y2="100%"><stop offset="0%" stop-color="#7d0fcc"></stop><stop offset="100%" stop-color="#56088e"></stop></linearGradient><filter id="s0-filter-d7d2588b-c712-44be-9215-a2fe46472fb1-3d" filterUnits="userSpaceOnUse" x="-50%" y="-50%" width="200%" height="200%"><feFlood flood-color="black" flood-opacity="1"></feFlood><feComposite operator="out" in2="SourceAlpha" result="inv"></feComposite><feGaussianBlur stdDeviation="12" in="inv"></feGaussianBlur><feComposite operator="in" in2="SourceAlpha" result="sh"></feComposite><feMerge><feMergeNode in="SourceGraphic"></feMergeNode><feMergeNode in="sh"></feMergeNode></feMerge></filter><linearGradient id="s1-grad-aaf514d7-b9f8-4360-a752-4240124e0816" x1="50%" y1="0%" x2="50%" y2="100%"><stop offset="0%" stop-color="#7a17c1"></stop><stop offset="100%" stop-color="#600ca1"></stop></linearGradient><filter id="s1-filter-aaf514d7-b9f8-4360-a752-4240124e0816-3d" filterUnits="userSpaceOnUse" x="-50%" y="-50%" width="200%" height="200%"><feGaussianBlur stdDeviation="6"></feGaussianBlur></filter><linearGradient id="s2-grad-df0262f7-1cd0-4f04-8dcc-830bd9022206" x1="50%" y1="0%" x2="50%" y2="100%"><stop offset="0%" stop-color="#29003b"></stop><stop offset="100%" stop-color="#7700c6"></stop></linearGradient><style>
      .cls-1-565b2940-6d17-4b9f-ac47-229b6a296249 {
        fill: #44286b;
      }

      .cls-2-565b2940-6d17-4b9f-ac47-229b6a296249 {
        fill: #1b1b1b;
      }
    </style></defs><svg x="0.00" y="0.00" width="432.00" height="744.00" overflow="visible" viewBox="0 0 432 744" preserveAspectRatio="xMidYMid meet"><path class="fill-path" d="M 21.229 0 C 154.471 0 275.424 0 410.603 0 C 418.786 0.319 427.629 7.643 427.832 15.83 C 427.832 38.883 427.831 61.583 427.829 84 L 428 84 C 430.209 84 432 85.791 432 88 L 432 92 C 432 94.209 430.209 96 428 96 L 427.828 96 C 427.827 100.009 427.827 104.008 427.827 108 L 428 108 C 430.209 108 432 109.791 432 112 L 432 116 C 432 118.209 430.209 120 428 120 L 427.825 120 C 427.825 124.008 427.824 128.008 427.824 132 L 428 132 C 430.209 132 432 133.791 432 136 L 432 140 C 432 142.209 430.209 144 428 144 L 427.822 144 C 427.822 148.007 427.821 152.007 427.82 156 L 428 156 C 430.209 156 432 157.791 432 160 L 432 164 C 432 166.209 430.209 168 428 168 L 427.818 168 C 427.79 343.077 427.724 505.512 427.724 690.977 C 427.345 703.427 418.081 715.136 406.405 719.471 C 370.877 732.661 337.445 734.038 299.808 738.467 C 269.425 742.043 243.076 742.292 212.484 742.292 C 184.254 742.292 159.939 741.884 131.917 738.467 C 94.299 733.881 60.847 732.661 25.319 719.471 C 13.643 715.136 4.377 703.427 4 690.977 C 4 506.253 4 343.35 4 168 C 1.791 168 0 166.209 0 164 L 0 160 C 0 157.791 1.791 156 4 156 C 4 152.007 4 148.007 4 144 C 1.791 144 0 142.209 0 140 L 0 136 C 0 133.791 1.791 132 4 132 C 4 128.008 4 124.008 4 120 C 1.791 120 0 118.209 0 116 L 0 112 C 0 109.791 1.791 108 4 108 C 4 104.008 4 100.008 4 96 C 1.791 96 0 94.209 0 92 L 0 88 C 0 85.791 1.791 84 4 84 C 4 61.575 4 38.874 4 15.83 C 4.204 7.644 13.046 0.319 21.229 0 Z" fill="url(#s0-grad-d7d2588b-c712-44be-9215-a2fe46472fb1)" stroke="none" filter="url(#s0-filter-d7d2588b-c712-44be-9215-a2fe46472fb1-3d)" style=""></path><path d="M 21.229 0 C 154.471 0 275.424 0 410.603 0 C 418.786 0.319 427.629 7.643 427.832 15.83 C 427.832 38.883 427.831 61.583 427.829 84 L 428 84 C 430.209 84 432 85.791 432 88 L 432 92 C 432 94.209 430.209 96 428 96 L 427.828 96 C 427.827 100.009 427.827 104.008 427.827 108 L 428 108 C 430.209 108 432 109.791 432 112 L 432 116 C 432 118.209 430.209 120 428 120 L 427.825 120 C 427.825 124.008 427.824 128.008 427.824 132 L 428 132 C 430.209 132 432 133.791 432 136 L 432 140 C 432 142.209 430.209 144 428 144 L 427.822 144 C 427.822 148.007 427.821 152.007 427.82 156 L 428 156 C 430.209 156 432 157.791 432 160 L 432 164 C 432 166.209 430.209 168 428 168 L 427.818 168 C 427.79 343.077 427.724 505.512 427.724 690.977 C 427.345 703.427 418.081 715.136 406.405 719.471 C 370.877 732.661 337.445 734.038 299.808 738.467 C 269.425 742.043 243.076 742.292 212.484 742.292 C 184.254 742.292 159.939 741.884 131.917 738.467 C 94.299 733.881 60.847 732.661 25.319 719.471 C 13.643 715.136 4.377 703.427 4 690.977 C 4 506.253 4 343.35 4 168 C 1.791 168 0 166.209 0 164 L 0 160 C 0 157.791 1.791 156 4 156 C 4 152.007 4 148.007 4 144 C 1.791 144 0 142.209 0 140 L 0 136 C 0 133.791 1.791 132 4 132 C 4 128.008 4 124.008 4 120 C 1.791 120 0 118.209 0 116 L 0 112 C 0 109.791 1.791 108 4 108 C 4 104.008 4 100.008 4 96 C 1.791 96 0 94.209 0 92 L 0 88 C 0 85.791 1.791 84 4 84 C 4 61.575 4 38.874 4 15.83 C 4.204 7.644 13.046 0.319 21.229 0 Z" class="stroke-path" fill="none" stroke="none" style="display: none;"></path></svg><svg x="82.00" y="274.00" width="268.73" height="399.13" overflow="visible" viewBox="0 0 268.73301134539275 399.127905385119" preserveAspectRatio="xMidYMid meet" filter="url(#s1-filter-aaf514d7-b9f8-4360-a752-4240124e0816-3d)"><path class="fill-path" d="M40 0L228.73301134539275 0A40 40 0 0 1 268.73301134539275 40L268.73301134539275 359.127905385119A40 40 0 0 1 228.73301134539275 399.127905385119L40 399.127905385119A40 40 0 0 1 0 359.127905385119L0 40A40 40 0 0 1 40 0Z" fill="url(#s1-grad-aaf514d7-b9f8-4360-a752-4240124e0816)" stroke="none" style=""></path><path d="M40 0L228.73301134539275 0A40 40 0 0 1 268.73301134539275 40L268.73301134539275 359.127905385119A40 40 0 0 1 228.73301134539275 399.127905385119L40 399.127905385119A40 40 0 0 1 0 359.127905385119L0 40A40 40 0 0 1 40 0Z" class="stroke-path" fill="none" stroke="none" style="display: none;"></path></svg><svg x="162.00" y="598.00" width="109.56" height="28.68" overflow="visible" viewBox="0 0 109.5619234301048 28.67901017015015" preserveAspectRatio="xMidYMid meet" opacity="0.46"><path class="fill-path" d="M 74.731 2.946 Q 83.051 1.818 90.896 2.946 C 95.694 3.636 107.06 6.737 107.06 14.32 C 107.06 21.903 95.652 24.732 90.896 25.694 Q 84.932 26.9 74.731 25.694 Q 58.566 22.85 58.566 14.32 Q 58.566 5.79 74.731 2.946 Z M 18.666 2.946 Q 26.986 1.818 34.831 2.946 C 39.629 3.636 50.996 6.737 50.996 14.32 C 50.996 21.903 39.588 24.732 34.831 25.694 Q 28.867 26.9 18.666 25.694 Q 2.501 22.85 2.501 14.32 Q 2.501 5.79 18.666 2.946 Z" fill="url(#s2-grad-df0262f7-1cd0-4f04-8dcc-830bd9022206)" stroke="none" style=""></path></svg><svg x="75.07" y="7.00" width="13.87" height="11.30" overflow="visible" viewBox="0 0 13.87214904852027 11.300531875858248" preserveAspectRatio="xMidYMid meet" opacity="0.46"><path class="fill-path" d="M -2.774 14.691 L 13.872 14.691 L 5.549 1.13 L -2.774 14.691 Z" fill="#8F13E8" stroke="none"></path><path d="M -2.774 14.691 L 13.872 14.691 L 5.549 1.13 L -2.774 14.691 Z" class="stroke-path" fill="none" stroke="none" style="display: none;"></path></svg><svg x="289.00" y="584.00" width="144.00" height="144.00" overflow="visible" viewBox="0 0 144 144" preserveAspectRatio="xMidYMid meet"><path class="fill-path" d="M0 0h144v144H0z" fill="none" stroke="none" fill-opacity="0" pointer-events="all" style="fill: none; fill-opacity: 0; pointer-events: all;"></path><path d="M0 0h144v144H0z" class="stroke-path" fill="none" stroke="none" style="display: none;"></path><svg xmlns="http://www.w3.org/2000/svg" id="s4-Layer_2" data-name="Layer 2" viewBox="0 0 73.67 83.13" class="shape-icon custom-icon" width="104" height="104" preserveAspectRatio="xMidYMid meet" overflow="visible" x="20" y="20" style="pointer-events: none;">
  
  <g id="s4-Layer_1-2" data-name="Layer 1">
    <g>
      <circle class="cls-2-565b2940-6d17-4b9f-ac47-229b6a296249" cx="12.81" cy="12.55" r="3.19"></circle>
      <circle class="cls-1-565b2940-6d17-4b9f-ac47-229b6a296249" cx="12.81" cy="21.52" r="3.19"></circle>
      <circle class="cls-2-565b2940-6d17-4b9f-ac47-229b6a296249" cx="12.81" cy="31.26" r="3.19"></circle>
      <circle class="cls-1-565b2940-6d17-4b9f-ac47-229b6a296249" cx="12.81" cy="41" r="3.19"></circle>
      <circle class="cls-2-565b2940-6d17-4b9f-ac47-229b6a296249" cx="12.81" cy="50.73" r="3.19"></circle>
      <circle class="cls-1-565b2940-6d17-4b9f-ac47-229b6a296249" cx="12.81" cy="60.47" r="3.19"></circle>
      <circle class="cls-2-565b2940-6d17-4b9f-ac47-229b6a296249" cx="12.81" cy="70.2" r="3.19"></circle>
      <circle class="cls-1-565b2940-6d17-4b9f-ac47-229b6a296249" cx="12.81" cy="79.94" r="3.19"></circle>
      <circle class="cls-1-565b2940-6d17-4b9f-ac47-229b6a296249" cx="22.42" cy="10.5" r="3.19"></circle>
      <circle class="cls-2-565b2940-6d17-4b9f-ac47-229b6a296249" cx="22.42" cy="19.47" r="3.19"></circle>
      <circle class="cls-1-565b2940-6d17-4b9f-ac47-229b6a296249" cx="22.42" cy="29.21" r="3.19"></circle>
      <circle class="cls-2-565b2940-6d17-4b9f-ac47-229b6a296249" cx="22.42" cy="38.94" r="3.19"></circle>
      <circle class="cls-1-565b2940-6d17-4b9f-ac47-229b6a296249" cx="22.42" cy="48.68" r="3.19"></circle>
      <circle class="cls-2-565b2940-6d17-4b9f-ac47-229b6a296249" cx="22.42" cy="58.41" r="3.19"></circle>
      <circle class="cls-1-565b2940-6d17-4b9f-ac47-229b6a296249" cx="22.42" cy="68.15" r="3.19"></circle>
      <circle class="cls-2-565b2940-6d17-4b9f-ac47-229b6a296249" cx="22.42" cy="77.88" r="3.19"></circle>
      <circle class="cls-2-565b2940-6d17-4b9f-ac47-229b6a296249" cx="32.03" cy="8.44" r="3.19"></circle>
      <circle class="cls-1-565b2940-6d17-4b9f-ac47-229b6a296249" cx="32.03" cy="17.42" r="3.19"></circle>
      <circle class="cls-2-565b2940-6d17-4b9f-ac47-229b6a296249" cx="32.03" cy="27.15" r="3.19"></circle>
      <circle class="cls-1-565b2940-6d17-4b9f-ac47-229b6a296249" cx="32.03" cy="36.89" r="3.19"></circle>
      <circle class="cls-2-565b2940-6d17-4b9f-ac47-229b6a296249" cx="32.03" cy="46.62" r="3.19"></circle>
      <circle class="cls-1-565b2940-6d17-4b9f-ac47-229b6a296249" cx="32.03" cy="56.36" r="3.19"></circle>
      <circle class="cls-2-565b2940-6d17-4b9f-ac47-229b6a296249" cx="32.03" cy="66.1" r="3.19"></circle>
      <circle class="cls-1-565b2940-6d17-4b9f-ac47-229b6a296249" cx="32.03" cy="75.83" r="3.19"></circle>
      <circle class="cls-1-565b2940-6d17-4b9f-ac47-229b6a296249" cx="41.64" cy="7.3" r="3.19"></circle>
      <circle class="cls-2-565b2940-6d17-4b9f-ac47-229b6a296249" cx="41.64" cy="16.28" r="3.19"></circle>
      <circle class="cls-1-565b2940-6d17-4b9f-ac47-229b6a296249" cx="41.64" cy="26.01" r="3.19"></circle>
      <circle class="cls-2-565b2940-6d17-4b9f-ac47-229b6a296249" cx="41.64" cy="35.75" r="3.19"></circle>
      <circle class="cls-1-565b2940-6d17-4b9f-ac47-229b6a296249" cx="41.64" cy="45.48" r="3.19"></circle>
      <circle class="cls-2-565b2940-6d17-4b9f-ac47-229b6a296249" cx="41.64" cy="55.22" r="3.19"></circle>
      <circle class="cls-1-565b2940-6d17-4b9f-ac47-229b6a296249" cx="41.64" cy="64.95" r="3.19"></circle>
      <circle class="cls-2-565b2940-6d17-4b9f-ac47-229b6a296249" cx="41.64" cy="74.69" r="3.19"></circle>
      <circle class="cls-2-565b2940-6d17-4b9f-ac47-229b6a296249" cx="51.25" cy="5.25" r="3.19"></circle>
      <circle class="cls-1-565b2940-6d17-4b9f-ac47-229b6a296249" cx="51.25" cy="14.22" r="3.19"></circle>
      <circle class="cls-2-565b2940-6d17-4b9f-ac47-229b6a296249" cx="51.25" cy="23.96" r="3.19"></circle>
      <circle class="cls-1-565b2940-6d17-4b9f-ac47-229b6a296249" cx="51.25" cy="33.69" r="3.19"></circle>
      <circle class="cls-2-565b2940-6d17-4b9f-ac47-229b6a296249" cx="51.25" cy="43.43" r="3.19"></circle>
      <circle class="cls-1-565b2940-6d17-4b9f-ac47-229b6a296249" cx="51.25" cy="53.17" r="3.19"></circle>
      <circle class="cls-2-565b2940-6d17-4b9f-ac47-229b6a296249" cx="51.25" cy="62.9" r="3.19"></circle>
      <circle class="cls-1-565b2940-6d17-4b9f-ac47-229b6a296249" cx="51.25" cy="72.64" r="3.19"></circle>
      <circle class="cls-1-565b2940-6d17-4b9f-ac47-229b6a296249" cx="60.86" cy="3.19" r="3.19"></circle>
      <circle class="cls-2-565b2940-6d17-4b9f-ac47-229b6a296249" cx="60.86" cy="12.17" r="3.19"></circle>
      <circle class="cls-1-565b2940-6d17-4b9f-ac47-229b6a296249" cx="60.86" cy="21.91" r="3.19"></circle>
      <circle class="cls-2-565b2940-6d17-4b9f-ac47-229b6a296249" cx="60.86" cy="31.64" r="3.19"></circle>
      <circle class="cls-1-565b2940-6d17-4b9f-ac47-229b6a296249" cx="60.86" cy="41.38" r="3.19"></circle>
      <circle class="cls-2-565b2940-6d17-4b9f-ac47-229b6a296249" cx="60.86" cy="51.11" r="3.19"></circle>
      <circle class="cls-1-565b2940-6d17-4b9f-ac47-229b6a296249" cx="60.86" cy="60.85" r="3.19"></circle>
      <circle class="cls-1-565b2940-6d17-4b9f-ac47-229b6a296249" cx="70.47" cy="10.5" r="3.19"></circle>
      <circle class="cls-2-565b2940-6d17-4b9f-ac47-229b6a296249" cx="70.47" cy="20.23" r="3.19"></circle>
      <circle class="cls-1-565b2940-6d17-4b9f-ac47-229b6a296249" cx="70.47" cy="29.97" r="3.19"></circle>
      <circle class="cls-2-565b2940-6d17-4b9f-ac47-229b6a296249" cx="70.47" cy="39.7" r="3.19"></circle>
      <circle class="cls-1-565b2940-6d17-4b9f-ac47-229b6a296249" cx="70.47" cy="49.44" r="3.19"></circle>
      <circle class="cls-2-565b2940-6d17-4b9f-ac47-229b6a296249" cx="70.47" cy="59.17" r="3.19"></circle>
      <circle class="cls-2-565b2940-6d17-4b9f-ac47-229b6a296249" cx="3.19" cy="23.2" r="3.19"></circle>
      <circle class="cls-1-565b2940-6d17-4b9f-ac47-229b6a296249" cx="3.19" cy="32.93" r="3.19"></circle>
      <circle class="cls-2-565b2940-6d17-4b9f-ac47-229b6a296249" cx="3.19" cy="42.67" r="3.19"></circle>
      <circle class="cls-1-565b2940-6d17-4b9f-ac47-229b6a296249" cx="3.19" cy="52.41" r="3.19"></circle>
      <circle class="cls-2-565b2940-6d17-4b9f-ac47-229b6a296249" cx="3.19" cy="62.14" r="3.19"></circle>
      <circle class="cls-1-565b2940-6d17-4b9f-ac47-229b6a296249" cx="3.19" cy="71.88" r="3.19"></circle>
      <circle class="cls-2-565b2940-6d17-4b9f-ac47-229b6a296249" cx="60.86" cy="70.58" r="3.19"></circle>
    </g>
  </g>
</svg></svg><svg x="150.69" y="394.50" width="129.00" height="37.00" overflow="visible" viewBox="0 0 129 37" preserveAspectRatio="xMidYMid meet" opacity="0.1"><path class="fill-path" d="M0 0h129v37H0z" fill="none" stroke="none" fill-opacity="0" pointer-events="all" style="fill: none; fill-opacity: 0; pointer-events: all;"></path><path d="M0 0h129v37H0z" class="stroke-path" fill="none" stroke="none" style="display: none;"></path><svg xmlns="http://www.w3.org/2000/svg" id="s5-Layer_2" data-name="Layer 2" viewBox="0 0 405.94 100" class="shape-icon custom-icon" width="120" height="120" preserveAspectRatio="xMidYMid meet" overflow="visible" x="4.5" y="-41.5" style="pointer-events: none;">
  <g id="s5-Layer_2-2" data-name="Layer 2">
    <g id="s5-svg2">
      <g>
        <polygon points="75.23 26.37 89.78 26.37 89.78 73.46 75.24 73.46 54.85 40.62 54.85 73.46 40.26 73.46 40.26 26.37 54.94 26.37 75.24 59.2 75.23 26.37"></polygon>
        <rect x="97.84" y="26.36" width="14.2" height="9.63"></rect>
        <rect x="97.88" y="42.15" width="14.16" height="31.31"></rect>
        <path d="M161.13,56.41v17.04h-14.06v-20.56c0-2.73-2.61-5.76-6.47-5.76s-6.72,3.03-6.72,5.76c0,1.33,0,20.56,0,20.56h-14.05v-31.3l14.05-.02s0,2.52,0,3.3c2.71-2.59,6.62-4.6,11.29-4.73,5.3-.15,16.03,3.31,15.95,15.71h0Z"></path>
        <polygon points="183.07 42.21 183.09 73.46 168.9 73.46 168.91 42.21 161.21 42.21 161.21 37.57 168.91 37.55 168.9 31.22 183.07 31.22 183.07 37.55 190.74 37.55 190.74 42.21 183.07 42.21"></polygon>
        <path d="M215.69,64.4c0,5.72-3.76,7-5.85,7s-5.93-1.28-5.93-7c0-1.72.02-6.46.02-6.46,0,0,26.67.02,26.67,0,0-9.71-9.38-17.75-20.89-17.75s-20.84,7.86-20.84,17.58,9.33,17.57,20.84,17.57c9.55,0,17.63-5.45,20.09-12.85l-14.11.02v1.9ZM204.86,46.92c1.1-1.93,3.13-2.85,4.98-2.86,1.84,0,3.87.93,4.97,2.86.9,1.56.95,3.39.93,6.13h-11.81c-.03-2.74.03-4.57.93-6.13h0Z"></path>
        <path d="M276.19,56.41c-.02,2.21,0,17.04,0,17.04h-14.08v-20.56c0-2.73-2.6-5.76-6.47-5.76s-6.71,3.03-6.71,5.76v20.56h-14.05v-31.3l14.05-.02v3.3c2.71-2.59,6.61-4.6,11.29-4.73,5.29-.15,16.03,3.31,15.96,15.71h.01Z"></path>
        <path d="M306.7,26.37v17.34c-2.27-1.28-4.65-2.51-8.01-2.8-10.21-.91-18,8.12-18,16.38,0,10.9,8.4,14.93,9.68,15.54,4.77,2.2,10.88,2.2,16.3-1.18,0,.28.01,1.8.01,1.8h13.99V26.37h-13.97,0ZM306.8,63.19c0,4.85-3.35,6.1-5.55,6.1s-5.55-1.25-5.55-6.1v-11.15c0-4.84,3.3-6.07,5.55-6.07s5.55,1.23,5.55,6.07c0,0,0,11.15,0,11.15Z"></path>
        <path d="M345.97,40.02c-11.42,0-20.69,7.86-20.69,17.57s9.27,17.57,20.69,17.57,20.69-7.87,20.69-17.57-9.25-17.57-20.69-17.57ZM351.65,64.18c0,4.99-2.94,7.04-5.79,7.04s-5.81-2.05-5.81-7.04c0-1.91.01-6.76.01-6.76v-6.52c0-4.97,2.98-7.01,5.79-7.01s5.79,2.04,5.79,7.01c0,1.89-.01,5.37.01,6.64,0,0-.01,4.73-.01,6.64h0Z"></path>
        <path d="M371.1,32.85c1.58-.2,2.78-1.03,2.78-2.95,0-2.12-1.25-3.05-3.79-3.05h-4.07v10.72h1.62v-4.65h1.86l2.83,4.65h1.82l-3.05-4.72h0ZM367.64,31.54v-3.31h2.21c1.13,0,2.34.24,2.34,1.57,0,1.65-1.24,1.74-2.61,1.74h-1.94Z"></path>
        <path d="M369.6,22.93c-5.11,0-9.43,3.92-9.43,9.26s4.32,9.32,9.43,9.32,9.39-3.94,9.39-9.32-4.32-9.26-9.39-9.26ZM369.6,39.96c-4.25,0-7.57-3.29-7.57-7.77s3.32-7.71,7.57-7.71,7.52,3.3,7.52,7.71-3.31,7.77-7.52,7.77Z"></path>
        <path d="M352.9,0H53.05C21.32-.09,0,22.74,0,50.08s21.27,49.91,53.1,49.92h299.75c31.82-.01,53.09-22.56,53.09-49.92S384.62-.09,352.9,0ZM352.74,87.74H53.19c-25.28.08-40.66-16.89-40.66-37.72S27.99,12.34,53.19,12.29h299.55c25.21.05,40.67,16.9,40.67,37.73s-15.36,37.8-40.67,37.72Z"></path>
        <polygon points="75.23 26.37 89.78 26.37 89.78 73.46 75.24 73.46 54.85 40.62 54.85 73.46 40.26 73.46 40.26 26.37 54.94 26.37 75.24 59.2 75.23 26.37"></polygon>
        <rect x="97.84" y="26.36" width="14.2" height="9.63"></rect>
        <rect x="97.88" y="42.15" width="14.16" height="31.31"></rect>
        <path d="M161.13,56.41v17.04h-14.06v-20.56c0-2.73-2.61-5.76-6.47-5.76s-6.72,3.03-6.72,5.76c0,1.33,0,20.56,0,20.56h-14.05v-31.3l14.05-.02s0,2.52,0,3.3c2.71-2.59,6.62-4.6,11.29-4.73,5.3-.15,16.03,3.31,15.95,15.71h0Z"></path>
        <polygon points="183.07 42.21 183.09 73.46 168.9 73.46 168.91 42.21 161.21 42.21 161.21 37.57 168.91 37.55 168.9 31.22 183.07 31.22 183.07 37.55 190.74 37.55 190.74 42.21 183.07 42.21"></polygon>
        <path d="M215.69,64.4c0,5.72-3.76,7-5.85,7s-5.93-1.28-5.93-7c0-1.72.02-6.46.02-6.46,0,0,26.67.02,26.67,0,0-9.71-9.38-17.75-20.89-17.75s-20.84,7.86-20.84,17.58,9.33,17.57,20.84,17.57c9.55,0,17.63-5.45,20.09-12.85l-14.11.02v1.9ZM204.86,46.92c1.1-1.93,3.13-2.85,4.98-2.86,1.84,0,3.87.93,4.97,2.86.9,1.56.95,3.39.93,6.13h-11.81c-.03-2.74.03-4.57.93-6.13h0Z"></path>
        <path d="M276.19,56.41c-.02,2.21,0,17.04,0,17.04h-14.08v-20.56c0-2.73-2.6-5.76-6.47-5.76s-6.71,3.03-6.71,5.76v20.56h-14.05v-31.3l14.05-.02v3.3c2.71-2.59,6.61-4.6,11.29-4.73,5.29-.15,16.03,3.31,15.96,15.71h.01Z"></path>
        <path d="M306.7,26.37v17.34c-2.27-1.28-4.65-2.51-8.01-2.8-10.21-.91-18,8.12-18,16.38,0,10.9,8.4,14.93,9.68,15.54,4.77,2.2,10.88,2.2,16.3-1.18,0,.28.01,1.8.01,1.8h13.99V26.37h-13.97,0ZM306.8,63.19c0,4.85-3.35,6.1-5.55,6.1s-5.55-1.25-5.55-6.1v-11.15c0-4.84,3.3-6.07,5.55-6.07s5.55,1.23,5.55,6.07c0,0,0,11.15,0,11.15Z"></path>
        <path d="M345.97,40.02c-11.42,0-20.69,7.86-20.69,17.57s9.27,17.57,20.69,17.57,20.69-7.87,20.69-17.57-9.25-17.57-20.69-17.57ZM351.65,64.18c0,4.99-2.94,7.04-5.79,7.04s-5.81-2.05-5.81-7.04c0-1.91.01-6.76.01-6.76v-6.52c0-4.97,2.98-7.01,5.79-7.01s5.79,2.04,5.79,7.01c0,1.89-.01,5.37.01,6.64,0,0-.01,4.73-.01,6.64h0Z"></path>
        <path d="M371.1,32.85c1.58-.2,2.78-1.03,2.78-2.95,0-2.12-1.25-3.05-3.79-3.05h-4.07v10.72h1.62v-4.65h1.86l2.83,4.65h1.82l-3.05-4.72h0ZM367.64,31.54v-3.31h2.21c1.13,0,2.34.24,2.34,1.57,0,1.65-1.24,1.74-2.61,1.74h-1.94Z"></path>
        <path d="M369.6,22.93c-5.11,0-9.43,3.92-9.43,9.26s4.32,9.32,9.43,9.32,9.39-3.94,9.39-9.32-4.32-9.26-9.39-9.26ZM369.6,39.96c-4.25,0-7.57-3.29-7.57-7.77s3.32-7.71,7.57-7.71,7.52,3.3,7.52,7.71-3.31,7.77-7.52,7.77Z"></path>
        <polygon points="89.78 26.37 89.78 73.46 75.24 73.46 54.85 40.62 54.85 73.46 40.26 73.46 40.26 26.37 54.94 26.37 75.24 59.2 75.23 26.37 89.78 26.37"></polygon>
        <polygon points="190.74 42.21 183.07 42.21 183.09 73.46 168.9 73.46 168.91 42.21 161.21 42.21 161.21 37.57 168.91 37.55 168.9 31.22 183.07 31.22 183.07 37.55 190.74 37.55 190.74 42.21"></polygon>
        <rect x="97.88" y="42.15" width="14.16" height="31.31"></rect>
        <rect x="97.84" y="26.36" width="14.2" height="9.63"></rect>
        <path id="s5-path464" d="M345.97,40.02c-11.42,0-20.69,7.86-20.69,17.57s9.27,17.57,20.69,17.57,20.69-7.87,20.69-17.57-9.25-17.57-20.69-17.57ZM351.65,64.18c0,4.99-2.94,7.04-5.79,7.04s-5.81-2.05-5.81-7.04c0-1.91.01-6.76.01-6.76v-6.52c0-4.97,2.98-7.01,5.79-7.01s5.79,2.04,5.79,7.01c0,1.89-.01,5.37.01,6.64,0,0-.01,4.73-.01,6.64h0Z"></path>
        <path id="s5-path466" d="M306.7,26.37v17.34c-2.27-1.28-4.65-2.51-8.01-2.8-10.21-.91-18,8.12-18,16.38,0,10.9,8.4,14.93,9.68,15.54,4.77,2.2,10.88,2.2,16.3-1.18,0,.28.01,1.8.01,1.8h13.99V26.37h-13.97,0ZM306.8,63.19c0,4.85-3.35,6.1-5.55,6.1s-5.55-1.25-5.55-6.1v-11.15c0-4.84,3.3-6.07,5.55-6.07s5.55,1.23,5.55,6.07c0,0,0,11.15,0,11.15Z"></path>
        <path d="M161.13,73.45h-14.06v-20.56c0-2.73-2.61-5.76-6.47-5.76s-6.72,3.03-6.72,5.76c0,1.33,0,20.56,0,20.56h-14.05v-31.3l14.05-.02s0,2.52,0,3.3c2.71-2.59,6.62-4.6,11.29-4.73,5.3-.15,16.03,3.31,15.95,15.71v17.04h0Z"></path>
        <path d="M276.19,73.45h-14.08v-20.56c0-2.73-2.6-5.76-6.47-5.76s-6.71,3.03-6.71,5.76v20.56h-14.05v-31.3l14.05-.02v3.3c2.71-2.59,6.61-4.6,11.29-4.73,5.29-.15,16.03,3.31,15.96,15.71-.02,2.21,0,17.04,0,17.04h.01Z"></path>
        <path id="s5-path472" d="M215.69,64.4c0,5.72-3.76,7-5.85,7s-5.93-1.28-5.93-7c0-1.72.02-6.46.02-6.46,0,0,26.67.02,26.67,0,0-9.71-9.38-17.75-20.89-17.75s-20.84,7.86-20.84,17.58,9.33,17.57,20.84,17.57c9.55,0,17.63-5.45,20.09-12.85l-14.11.02v1.9ZM204.86,46.92c1.1-1.93,3.13-2.85,4.98-2.86,1.84,0,3.87.93,4.97,2.86.9,1.56.95,3.39.93,6.13h-11.81c-.03-2.74.03-4.57.93-6.13h0Z"></path>
        <path id="s5-path474" d="M371.1,32.85c1.58-.2,2.78-1.03,2.78-2.95,0-2.12-1.25-3.05-3.79-3.05h-4.07v10.72h1.62v-4.65h1.86l2.83,4.65h1.82l-3.05-4.72h0ZM367.64,31.54v-3.31h2.21c1.13,0,2.34.24,2.34,1.57,0,1.65-1.24,1.74-2.61,1.74h-1.94Z"></path>
        <path id="s5-path476" d="M369.6,22.93c-5.11,0-9.43,3.92-9.43,9.26s4.32,9.32,9.43,9.32,9.39-3.94,9.39-9.32-4.32-9.26-9.39-9.26ZM369.6,39.96c-4.25,0-7.57-3.29-7.57-7.77s3.32-7.71,7.57-7.71,7.52,3.3,7.52,7.71-3.31,7.77-7.52,7.77Z"></path>
      </g>
    </g>
  </g>
</svg></svg><svg x="79.07" y="1.00" width="79.00" height="31.00" overflow="visible" viewBox="0 0 79 31" preserveAspectRatio="xMidYMid meet" opacity="0.46"><text x="39.5" text-anchor="middle" font-family="&quot;Inter&quot;, sans-serif" font-size="15" font-weight="400" fill="#9611F5" letter-spacing="-1"><tspan x="39.5" y="20">COMM</tspan></text></svg><svg x="144.00" y="624.00" width="87.00" height="31.00" overflow="visible" viewBox="0 0 87 31" preserveAspectRatio="xMidYMid meet" opacity="0.46"><text x="43.5" text-anchor="middle" font-family="&quot;Inter&quot;, sans-serif" font-size="15" font-weight="400" fill="#7F0DD0" letter-spacing="-0.5"><tspan x="43.5" y="20">SELECT</tspan></text></svg><svg x="207.00" y="624.00" width="78.00" height="31.00" overflow="visible" viewBox="0 0 78 31" preserveAspectRatio="xMidYMid meet" opacity="0.46"><text x="39" text-anchor="middle" font-family="&quot;Inter&quot;, sans-serif" font-size="15" font-weight="400" fill="#7F0DD0" letter-spacing="-0.5"><tspan x="39" y="20">START</tspan></text></svg></svg>