<?xml version="1.0" encoding="UTF-8"?>
<svg id="Layer_2" data-name="Layer 2" xmlns="http://www.w3.org/2000/svg" viewBox="0 0 417.86 46.75">
  <defs>
    <style>
      .cls-1 {
        fill: #676767;
      }

      .cls-2 {
        fill: #432f8d;
      }

      .cls-3 {
        fill: #007c6b;
      }

      .cls-4 {
        fill: #d7ae28;
      }

      .cls-5 {
        fill: #6da742;
      }

      .cls-6 {
        fill: #b61f33;
      }
    </style>
  </defs>
  <g id="Layer_1-2" data-name="Layer 1">
    <g>
      <g>
        <path class="cls-1" d="M109.5,3.89h-11l-8.78,22.23-3.55-22.23h-10l-11.45,34.45L60.39,3.89h-12.56l-13.66,34.45c1-2.78,1.55-13.04,1.55-13.04l-17.11.1-1.22,8.49,7.44-.11s0,.78-.33,2.89c-29.69,3.89-12.08-32.23,12.56-22.55,0,0,1-6.23,1.22-9.34C-8.13-5.94-14.49,59.34,31.06,44.56v2h9.89l4.77-12.78,8.89.11,1.67,12.23h16.11l7.33-22.45,3.45,22.45h8.89l9.22-23.78,1.78,23.78h9.11l-2.67-42.23ZM49.5,25.29l3.22-8.26,1.06,8.26h-4.28Z"/>
        <polygon class="cls-1" points="118.58 3.8 112.8 46.14 137.35 46.14 138.46 37.14 123.8 37.14 124.69 29.59 137.69 29.7 138.46 20.47 126.35 20.36 126.91 13.47 141.69 13.36 143.02 3.8 118.58 3.8"/>
        <path class="cls-1" d="M179.36,23.78c7.07-4.67,5.24-19.27-5.19-19.97-5.33-.03-18.66,0-18.66,0l-5.63,42.34h21.33c8.64-.54,17.08-14.16,8.15-22.37ZM167.4,37.26h-6.56l1.04-8h7.98c6.6,1.12,3.16,8.68-2.45,8ZM169.8,20.07h-6.52l.89-6.52h6.96c4.31.81,2.53,6.9-1.33,6.52Z"/>
        <polygon class="cls-1" points="215.13 3.8 225.69 3.79 230.91 16.1 238.8 3.8 249.8 3.8 234.24 27.77 232.02 46.15 222.02 46.14 224.8 25.29 215.13 3.8"/>
        <path class="cls-1" d="M204.71,3.8c-22.49-1.98-29.85,43.45-4.36,42.35,23.07,1.28,28.38-42.4,4.36-42.35ZM201.13,37.26c-11.51.7-8.88-26.04,2.11-24.49,12.62-1.06,8.38,25.73-2.11,24.49Z"/>
      </g>
      <path class="cls-6" d="M261.61,15.02c.73-1.69,9.41-13.89,17.81-14.72,5.43-1.02,13.3.3,13.16,7.3.02,1.58-.19,3.36-1.16,4.66-1.4,1.99-5.03,1.87-6.84.49-.86-.56-1.33-1.55-1.71-2.4-1.42-1.24-5.83.75-8.17,3.19-4.66,5.32-11.08,17.56-2.63,21.62,3.96,1.5,9.99.73,14.3.93,4.68-.47,8.18,4.64,4.74,8.32-1.26,1.18-3.28,1.46-5.08,1.53-3.19.12-7.95.03-10.99-.03-17.7.35-20.65-18.38-13.46-30.85l.02-.04Z"/>
      <path class="cls-2" d="M318.86,11.1c-4.4-3.89-11.42-3.64-17.14-1.65-5.46,1.98-9.41,8.07-10.48,9.83-.4.67-.63,1.05-.98,1.86-3.85,10.18-2.34,17.84,8.7,22.35,5.07,2.02,14.67.33,20.26-3.41,5.03-3.88,7.11-9.74,7.24-15.55-.08-5.05-3.46-10.05-7.46-13.31l-.15-.12ZM310.42,35.13c-6.25,2.46-12.4-2.89-11.69-9.28.21-1.25.27-1.13.88-2.24,1.53-2.58,4.11-5.66,7.38-6.25,3.12-.7,6.99.62,8.02,3.25,2.23,4.93,1.53,12.55-4.39,14.45l-.21.07Z"/>
      <path class="cls-5" d="M334.65,10.5c.17,3.5.34,13.28.45,16.82.09,1.67-.18,4.35.65,5.71.84,1.01,2.49.21,3.67-.1,2.94-1.15,5.91-1.91,8.94-1.01,3.89.98,4.7,6.48,1.54,8.83-1.25,1.04-2.79,1.18-4.33,1.35-2.65.26-5.44,1.18-8.07,2.29-3.45,2.13-9.48,2.85-10.19-2.42-.67-4.2-1.32-8.26-1.25-11.7-.23-5.95-.16-12.62-2.01-18.31-.67-2.35-1.97-5-1.4-7.42.43-1.59,2.53-3.01,4.4-3.61,4.78-1.38,7.53,5.66,7.59,9.44v.13Z"/>
      <path class="cls-4" d="M350.64,38.93c3.22,4.87,10.27,5.85,16.16,5.26,6.55-1.1,11.64-5.77,13.9-7.82,7-7.82,6.4-18.5-2.33-24.87-4-3.14-12.97-3.85-19.06-1.72-5.33,2.05-9.54,6.82-11.56,11.69-2.15,5.13-.62,12.78,2.78,17.31l.11.15ZM364.94,18.12c7.14-.8,11.7,3.87,9.43,10.75-.52,1.13-.51.97-1.29,1.85-1.46,1.53-3.7,3.24-6.03,3.73-3.77.88-9.26-1.57-9.72-5.17-.9-5.1,1.68-11,7.39-11.13l.23-.02Z"/>
      <path class="cls-3" d="M416.82,38.08c-19.15-16.95-14.31-7.81-4.72-19.01,3.82-4.3,2.73-11.78-2.72-14.19-1.84-.86-4.07-1.52-6.14-2.03-5.9-1.61-10.65-2.02-16.05,1.55-2.07,1.15-4.05,2.99-4.51,5.4-.49,2.32-.08,4.13.34,6.19.35,1.91,1.12,7.66,1.57,11.49.17,1.58.39,2.91.29,4.45,0,2.3-1.44,5.19-1.59,7.66-.08,4.19,5.18,8.29,8.88,5.19,2.04-1.57,1.94-5.15,2-8.11.1-.79-.3-3.61.61-2.61,1.59,1.3,8.07,6.7,11.91,9.75,1.87,1.42,3.03,2.61,4.87,2.83,4.42.46,8.13-4.78,5.28-8.51l-.05-.06ZM393.49,12.19c14.85-1.35,13.79,4.77.89,6.97-.17,0-.15-.12-.19-.32-.17-1.66-.61-5.11-.72-6.61l.02-.03Z"/>
    </g>
  </g>
</svg>